
# Vértices
v -1.0 -1.0  1.0
v  1.0 -1.0  1.0
v -1.0  1.0  1.0
v  1.0  1.0  1.0

v -1.0 -1.0 -1.0
v  1.0 -1.0 -1.0
v -1.0  1.0 -1.0
v  1.0  1.0 -1.0

v 1.0 -1.0 -1.0
v 1.0 -1.0  1.0
v 1.0  1.0 -1.0
v 1.0  1.0  1.0

v -1.0 -1.0 -1.0
v -1.0 -1.0  1.0
v -1.0  1.0 -1.0
v -1.0  1.0  1.0

v -1.0  1.0 -1.0
v -1.0  1.0  1.0
v  1.0  1.0 -1.0
v  1.0  1.0  1.0

v -1.0 -1.0 -1.0
v -1.0 -1.0  1.0
v  1.0 -1.0 -1.0
v  1.0 -1.0  1.0

# Coordenadas de textura
vt 0.0 0.0
vt 1.0 0.0
vt 0.0 1.0
vt 1.0 1.0

vt 0.0 1.0
vt 1.0 1.0
vt 0.0 0.0
vt 1.0 0.0

# Normales
vn 0.0 0.0 1.0
vn 0.0 0.0 -1.0
vn 1.0 0.0 0.0
vn -1.0 0.0 0.0
vn 0.0 1.0 0.0
vn 0.0 -1.0 0.0

# Caras
f 1/1/1 2/2/1 3/3/1
f 2/2/1 4/4/1 3/3/1

f 5/5/2 7/7/2 6/6/2
f 6/6/2 7/7/2 8/8/2

f 9/5/3 11/7/3 10/6/3
f 10/6/3 11/7/3 12/8/3

f 13/5/4 14/6/4 15/7/4
f 14/6/4 16/8/4 15/7/4

f 17/5/5 18/6/5 19/7/5
f 18/6/5 20/8/5 19/7/5

f 21/5/6 23/7/6 22/6/6
f 22/6/6 23/7/6 24/8/6
